<?xml version="1.0" encoding="UTF-8"?>
<svg id="Layer_2" data-name="Layer 2" xmlns="http://www.w3.org/2000/svg" xmlns:xlink="http://www.w3.org/1999/xlink" viewBox="0 0 525.49 526.95">
  <defs>
    <style>
      .cls-1 {
        fill: url(#linear-gradient);
      }
    </style>
    <linearGradient id="linear-gradient" x1="73.1" y1="509.15" x2="450.6" y2="131.65" gradientUnits="userSpaceOnUse">
      <stop offset="0" stop-color="#65fe6a"/>
      <stop offset="1" stop-color="#0bcdd5"/>
    </linearGradient>
  </defs>
  <g id="Layer_1-2" data-name="Layer 1">
    <path class="cls-1" d="M354.18,86.86h0c-.28-5.94-1.15-11.74-2.56-17.33C341.75,29.85,305.61,0,262.96,0s-78.66,29.76-88.59,69.35c-1.41,5.66-2.3,11.52-2.6,17.51-14.88,0-29.59,2.6-43.34,7.66-13.78,5.03-26.64,12.52-37.88,22.3C33.73,166.21,0,238.58,0,315.33c0,61.41,26.52,136.15,56.37,174.6,11.33,14.59,25.28,30.86,43.7,35.43h.02c4.1,1.04,8.42,1.58,12.89,1.58h58.88l-31.85-31.85c-30.59-30.59-51.33-96.99,6.68-154.98,30.57-30.59,61.15-36.57,87.86-31.65-4.92-26.7,1.04-57.27,31.63-87.86,54.88-54.88,117.38-39.24,149.79-11.45l-12.71-66.73c51.48,41.91,82.3,105.36,82.3,172.89,0,38.42-9.96,75.97-28.55,109.07l-21.26-111.57-55.69-55.69c-24.97-24.95-54.49-17.92-74.86,2.47-20.37,20.39-27.42,49.92-2.45,74.84l103.67,103.69-42.19,42.19-103.65-103.69c-24.99-24.95-54.47-17.92-74.86,2.45-20.39,20.39-27.44,49.92-2.47,74.86l72.95,72.98h156.34c4.45,0,8.76-.54,12.86-1.58h.02l.02-.02c20.26-5.03,41.7-39.95,41.7-39.95,48.84-62.28,58.35-108.63,58.35-170.06,0-76.9-33.89-149.33-90.88-198.72-22.28-19.32-50.94-29.7-80.43-29.75ZM68.51,424.38c-18.59-33.1-28.55-70.65-28.55-109.05,0-67.53,30.8-130.98,82.28-172.92l-53.73,281.97ZM312.6,86.86c-15.64.02-32.52.02-49.66.02h-.37c-17.61,0-34.95,0-50.94-.02,2.39-12.39,9.09-23.12,18.31-30.67,9.35-7.7,21.3-12.13,33.97-11.71,11.45.37,22.08,4.64,30.57,11.58h.02c9.28,7.59,15.99,18.4,18.33,30.8h-.24Z"/>
  </g>
</svg>